<?xml version="1.0" encoding="iso-8859-1"?>
<!-- Uploaded to: SVG Repo, www.svgrepo.com, Generator: SVG Repo Mixer Tools -->
<svg version="1.1" id="Layer_1" xmlns="http://www.w3.org/2000/svg" xmlns:xlink="http://www.w3.org/1999/xlink" 
	 viewBox="0 0 512 512" xml:space="preserve">
<polygon style="fill:#FFFFFF;" points="504.152,47.898 375.89,151.91 384.14,159.91 502.665,159.91 "/>
<rect x="376.137" y="159.911" style="fill:#FAC15C;" width="126.523" height="352.039"/>
<rect x="440.141" y="143.912" style="fill:#BE1622;" width="64.004" height="32.003"/>
<rect x="152.116" y="7.893" style="fill:#FAC15C;" width="184.019" height="504.061"/>
<rect x="184.113" y="71.904" style="fill:#FFFFFF;" width="120.015" height="40.001"/>
<g>
	<rect x="296.134" y="255.923" style="fill:#CBBBA0;" width="144.018" height="256.028"/>
	<rect x="153.843" y="7.893" style="fill:#CBBBA0;" width="182.292" height="32.003"/>
</g>
<rect x="296.134" y="255.923" style="fill:#F9B233;" width="144.018" height="32.003"/>
<rect x="8.097" y="199.912" style="fill:#CBBBA0;" width="176.014" height="312.038"/>
<rect x="8.097" y="199.912" style="fill:#F9B233;" width="176.014" height="32.003"/>
<g>
	<polygon style="fill:#1D1D1B;" points="191.716,511.95 176.021,511.95 176.021,207.762 15.695,207.762 15.695,511.95 0,511.95 
		0,192.067 191.716,192.067 	"/>
	<polygon style="fill:#1D1D1B;" points="343.733,248.073 343.733,0.046 144.017,0.046 144.017,183.913 159.712,183.913 
		159.712,15.741 328.038,15.741 328.038,248.073 288.032,248.073 288.032,511.95 303.727,511.95 303.727,263.768 432.048,263.768 
		432.048,511.95 447.744,511.95 447.744,248.073 	"/>
	<rect x="23.849" y="224.072" style="fill:#1D1D1B;" width="144.018" height="15.695"/>
	<rect x="167.864" y="32.049" style="fill:#1D1D1B;" width="152.022" height="15.695"/>
</g>
<rect x="40.001" y="263.927" style="fill:#FFFFFF;" width="15.695" height="32.003"/>
<g>
	<rect x="88.007" y="263.927" style="fill:#1D1D1B;" width="15.695" height="32.003"/>
	<rect x="136.013" y="263.927" style="fill:#1D1D1B;" width="15.695" height="32.003"/>
	<rect x="40.001" y="327.931" style="fill:#1D1D1B;" width="15.695" height="32.004"/>
</g>
<rect x="88.007" y="327.931" style="fill:#FFFFFF;" width="15.695" height="32.004"/>
<rect x="136.013" y="327.931" style="fill:#1D1D1B;" width="15.695" height="32.004"/>
<g>
	<rect x="40.001" y="391.936" style="fill:#FFFFFF;" width="15.695" height="32.003"/>
	<rect x="88.007" y="391.936" style="fill:#FFFFFF;" width="15.695" height="32.003"/>
</g>
<g>
	<rect x="136.013" y="391.936" style="fill:#1D1D1B;" width="15.695" height="32.003"/>
	<rect x="40.001" y="455.94" style="fill:#1D1D1B;" width="15.695" height="32.003"/>
	<rect x="88.007" y="455.94" style="fill:#1D1D1B;" width="15.695" height="32.003"/>
</g>
<rect x="136.013" y="455.94" style="fill:#FFFFFF;" width="15.695" height="32.003"/>
<g>
	<path style="fill:#1D1D1B;" d="M311.728,64.053v55.7H176.021v-55.7H311.728z M191.716,104.056h104.318V79.748H191.716
		L191.716,104.056L191.716,104.056z"/>
	<rect x="176.025" y="135.908" style="fill:#1D1D1B;" width="15.695" height="32.003"/>
</g>
<rect x="216.026" y="135.908" style="fill:#FFFFFF;" width="15.695" height="32.003"/>
<g>
	<rect x="256.028" y="135.908" style="fill:#1D1D1B;" width="15.695" height="32.003"/>
	<rect x="296.029" y="135.908" style="fill:#1D1D1B;" width="15.695" height="32.003"/>
	<rect x="216.026" y="191.908" style="fill:#1D1D1B;" width="15.695" height="32.003"/>
</g>
<rect x="256.028" y="191.908" style="fill:#FFFFFF;" width="15.695" height="32.003"/>
<g>
	<rect x="216.026" y="247.918" style="fill:#1D1D1B;" width="15.695" height="32.004"/>
	<rect x="256.028" y="247.918" style="fill:#1D1D1B;" width="15.695" height="32.004"/>
</g>
<rect x="216.026" y="303.928" style="fill:#FFFFFF;" width="15.695" height="32.003"/>
<g>
	<rect x="256.028" y="303.928" style="fill:#1D1D1B;" width="15.695" height="32.003"/>
	<rect x="216.026" y="359.928" style="fill:#1D1D1B;" width="15.695" height="32.003"/>
</g>
<g>
	<rect x="256.028" y="359.928" style="fill:#FFFFFF;" width="15.695" height="32.003"/>
	<rect x="216.026" y="415.939" style="fill:#FFFFFF;" width="15.695" height="32.003"/>
</g>
<rect x="256.028" y="415.939" style="fill:#1D1D1B;" width="15.695" height="32.003"/>
<rect x="216.026" y="471.949" style="fill:#FFFFFF;" width="15.695" height="32.003"/>
<rect x="256.028" y="471.949" style="fill:#1D1D1B;" width="15.695" height="32.003"/>
<rect x="296.029" y="191.908" style="fill:#FFFFFF;" width="15.695" height="32.003"/>
<rect x="311.881" y="280.082" style="fill:#1D1D1B;" width="112.01" height="15.695"/>
<g>
	<rect x="328.037" y="311.933" style="fill:#FFFFFF;" width="15.695" height="200.017"/>
	<rect x="360.044" y="311.933" style="fill:#FFFFFF;" width="15.695" height="200.017"/>
	<rect x="392.041" y="311.933" style="fill:#FFFFFF;" width="15.695" height="200.017"/>
</g>
<g>
	<path style="fill:#1D1D1B;" d="M512,511.946l-0.258-480.529l-40.051,32.541l0.056-8.006l-15.695-0.111l-0.146,20.941
		l-16.163,13.132v-66.02h-15.695v78.773l-16.308,13.251V71.9h-15.695v56.771l-24.003,19.503v91.746h15.695v-72.162h48.312v16.002
		h64.081l0.176,328.195L512,511.946z M388.144,152.062l107.921-87.685l0.039,71.683H432.05v16.002H388.144z M447.744,168.064
		v-16.308h48.369l0.008,16.308H447.744z"/>
	<rect x="464.05" y="255.923" style="fill:#1D1D1B;" width="15.695" height="32.003"/>
</g>
<rect x="464.05" y="311.933" style="fill:#FFFFFF;" width="15.695" height="32.003"/>
<rect x="464.05" y="367.933" style="fill:#1D1D1B;" width="15.695" height="32.003"/>
<rect x="464.05" y="423.943" style="fill:#FFFFFF;" width="15.695" height="32.004"/>
<rect x="464.05" y="479.943" style="fill:#1D1D1B;" width="15.695" height="32.003"/>
<rect x="464.05" y="199.912" style="fill:#FFFFFF;" width="15.695" height="32.004"/>
<rect x="432.053" y="199.912" style="fill:#1D1D1B;" width="15.695" height="32.004"/>
<rect x="400.045" y="199.912" style="fill:#FFFFFF;" width="15.695" height="32.004"/>
</svg>